<svg width="22" height="22" viewBox="0 0 22 22" fill="none" xmlns="http://www.w3.org/2000/svg">
<path d="M12.1 2.2002C14.125 2.2002 15.7667 3.84182 15.7667 5.86686V14.6669C15.7667 17.5019 13.4684 19.8002 10.6333 19.8002C7.79827 19.8002 5.5 17.5019 5.5 14.6669V8.80019H6.96667V14.6669C6.96667 16.6919 8.60829 18.3335 10.6333 18.3335C12.6584 18.3335 14.3 16.6919 14.3 14.6669V5.86686C14.3 4.65184 13.315 3.66686 12.1 3.66686C10.885 3.66686 9.9 4.65184 9.9 5.86686V14.6669C9.9 15.0719 10.2283 15.4002 10.6333 15.4002C11.0383 15.4002 11.3667 15.0719 11.3667 14.6669V6.60019H12.8333V14.6669C12.8333 15.8819 11.8484 16.8669 10.6333 16.8669C9.41831 16.8669 8.43333 15.8819 8.43333 14.6669V5.86686C8.43333 3.84182 10.075 2.2002 12.1 2.2002Z" fill="#333333"/>
</svg>
