<svg width="22" height="22" viewBox="0 0 22 22" fill="none" xmlns="http://www.w3.org/2000/svg">
<path fill-rule="evenodd" clip-rule="evenodd" d="M4.12767 6.32737C4.30533 6.14971 4.54629 6.0499 4.79754 6.0499H17.204C17.4552 6.0499 17.6962 6.14971 17.8738 6.32737C18.0515 6.50504 18.1513 6.746 18.1513 6.99725V15.859C18.1513 16.1102 18.0515 16.3512 17.8738 16.5288C17.6962 16.7065 17.4552 16.8063 17.204 16.8063H6.56989C6.35108 16.8063 6.14124 16.8932 5.98652 17.048L3.8502 19.1843V6.99725C3.8502 6.746 3.95 6.50503 4.12767 6.32737ZM4.79754 4.3999C4.10868 4.3999 3.44804 4.67355 2.96094 5.16065C2.47384 5.64774 2.2002 6.30839 2.2002 6.99725V21.176C2.2002 21.5097 2.4012 21.8105 2.70948 21.9382C3.01776 22.0659 3.37261 21.9953 3.60856 21.7594L6.91161 18.4563H17.204C17.8928 18.4563 18.5535 18.1827 19.0406 17.6956C19.5277 17.2085 19.8013 16.5478 19.8013 15.859V6.99725C19.8013 6.30839 19.5277 5.64774 19.0406 5.16065C18.5535 4.67355 17.8928 4.3999 17.204 4.3999H4.79754ZM6.31712 8.7999C5.86149 8.7999 5.49212 9.16927 5.49212 9.6249C5.49212 10.0805 5.86149 10.4499 6.31712 10.4499H15.6752C16.1308 10.4499 16.5002 10.0805 16.5002 9.6249C16.5002 9.16927 16.1308 8.7999 15.6752 8.7999H6.31712ZM6.32519 12.1005C5.86956 12.1005 5.5002 12.4698 5.5002 12.9255C5.5002 13.3811 5.86956 13.7505 6.32519 13.7505H12.3786C12.8342 13.7505 13.2036 13.3811 13.2036 12.9255C13.2036 12.4698 12.8342 12.1005 12.3786 12.1005L6.32519 12.1005Z" fill="#818386"/>
</svg>
