<svg width="48" height="48" viewBox="0 0 48 48" fill="none" xmlns="http://www.w3.org/2000/svg">
<g opacity="0.7">
<path fill-rule="evenodd" clip-rule="evenodd" d="M11.5471 9.14687C12.0253 8.66865 12.6739 8.39999 13.3502 8.39999H35.0402V30.9H13.3502C12.4618 30.9 11.5933 31.0922 10.8002 31.4536V10.95C10.8002 10.2737 11.0689 9.62508 11.5471 9.14687ZM10.8002 37.05C10.8002 37.7263 11.0689 38.3749 11.5471 38.8531C12.0253 39.3313 12.6739 39.6 13.3502 39.6H35.0402V34.5H13.3502C12.6739 34.5 12.0253 34.7686 11.5471 35.2469C11.0689 35.7251 10.8002 36.3737 10.8002 37.05ZM38.6402 32.7V6.59999C38.6402 5.60588 37.8343 4.79999 36.8402 4.79999H13.3502C11.7191 4.79999 10.1548 5.44793 9.00149 6.60128C7.84814 7.75463 7.2002 9.31891 7.2002 10.95V37.05C7.2002 38.6811 7.84814 40.2453 9.00149 41.3987C10.1548 42.552 11.7191 43.2 13.3502 43.2H36.8402C37.8343 43.2 38.6402 42.3941 38.6402 41.4V32.7Z" fill="white"/>
</g>
</svg>
