<svg width="20" height="21" viewBox="0 0 20 21" fill="none" xmlns="http://www.w3.org/2000/svg">
<path fill-rule="evenodd" clip-rule="evenodd" d="M5.89935 2.5C6.31356 2.5 6.64935 2.83579 6.64935 3.25V3.75391H9.25V3.25C9.25 2.83579 9.58579 2.5 10 2.5C10.4142 2.5 10.75 2.83579 10.75 3.25V3.75391H13.25V3.25C13.25 2.83579 13.5858 2.5 14 2.5C14.4142 2.5 14.75 2.83579 14.75 3.25V3.75391H15.25C16.7688 3.75391 18 4.98512 18 6.50391V9.59766C18 10.0119 17.6642 10.3477 17.25 10.3477C16.8358 10.3477 16.5 10.0119 16.5 9.59766V6.50391C16.5 5.81355 15.9404 5.25391 15.25 5.25391H14.75V5.7514C14.75 6.16561 14.4142 6.5014 14 6.5014C13.5858 6.5014 13.25 6.16561 13.25 5.7514V5.25391H10.75V5.7514C10.75 6.16561 10.4142 6.5014 10 6.5014C9.58579 6.5014 9.25 6.16561 9.25 5.7514V5.25391H6.64935V5.7514C6.64935 6.16561 6.31356 6.5014 5.89935 6.5014C5.48513 6.5014 5.14935 6.16561 5.14935 5.7514V5.25391H4.75C4.05964 5.25391 3.5 5.81355 3.5 6.50391V15.7539C3.5 16.4443 4.05964 17.0039 4.75 17.0039H9.09375C9.50796 17.0039 9.84375 17.3397 9.84375 17.7539C9.84375 18.1681 9.50796 18.5039 9.09375 18.5039H4.75C3.23122 18.5039 2 17.2727 2 15.7539V6.50391C2 4.98512 3.23122 3.75391 4.75 3.75391H5.14935V3.25C5.14935 2.83579 5.48513 2.5 5.89935 2.5ZM6.62 9.0539C6.62 9.4405 6.3066 9.7539 5.92 9.7539C5.5334 9.7539 5.22 9.4405 5.22 9.0539C5.22 8.66731 5.5334 8.3539 5.92 8.3539C6.3066 8.3539 6.62 8.66731 6.62 9.0539ZM8.62 9.7539C9.0066 9.7539 9.32 9.4405 9.32 9.0539C9.32 8.66731 9.0066 8.3539 8.62 8.3539C8.2334 8.3539 7.92 8.66731 7.92 9.0539C7.92 9.4405 8.2334 9.7539 8.62 9.7539ZM6.62 11.7839C6.62 12.1705 6.3066 12.4839 5.92 12.4839C5.5334 12.4839 5.22 12.1705 5.22 11.7839C5.22 11.3973 5.5334 11.0839 5.92 11.0839C6.3066 11.0839 6.62 11.3973 6.62 11.7839ZM8.62 12.4839C9.0066 12.4839 9.32 12.1705 9.32 11.7839C9.32 11.3973 9.0066 11.0839 8.62 11.0839C8.2334 11.0839 7.92 11.3973 7.92 11.7839C7.92 12.1705 8.2334 12.4839 8.62 12.4839ZM6.62 14.4939C6.62 14.8805 6.3066 15.1939 5.92 15.1939C5.5334 15.1939 5.22 14.8805 5.22 14.4939C5.22 14.1073 5.5334 13.7939 5.92 13.7939C6.3066 13.7939 6.62 14.1073 6.62 14.4939ZM8.62 15.1939C9.0066 15.1939 9.32 14.8805 9.32 14.4939C9.32 14.1073 9.0066 13.7939 8.62 13.7939C8.2334 13.7939 7.92 14.1073 7.92 14.4939C7.92 14.8805 8.2334 15.1939 8.62 15.1939ZM12.05 9.0539C12.05 9.4405 11.7366 9.7539 11.35 9.7539C10.9634 9.7539 10.65 9.4405 10.65 9.0539C10.65 8.66731 10.9634 8.3539 11.35 8.3539C11.7366 8.3539 12.05 8.66731 12.05 9.0539ZM14.05 9.7539C14.4366 9.7539 14.75 9.4405 14.75 9.0539C14.75 8.66731 14.4366 8.3539 14.05 8.3539C13.6634 8.3539 13.35 8.66731 13.35 9.0539C13.35 9.4405 13.6634 9.7539 14.05 9.7539Z" fill="#818386"/>
<path fill-rule="evenodd" clip-rule="evenodd" d="M16.5 14.5039C16.5 15.8846 15.3807 17.0039 14 17.0039C12.6193 17.0039 11.5 15.8846 11.5 14.5039C11.5 13.1232 12.6193 12.0039 14 12.0039C15.3807 12.0039 16.5 13.1232 16.5 14.5039ZM18 14.5039C18 16.713 16.2091 18.5039 14 18.5039C11.7909 18.5039 10 16.713 10 14.5039C10 12.2948 11.7909 10.5039 14 10.5039C16.2091 10.5039 18 12.2948 18 14.5039ZM14.2 13.5039C14.2 13.2278 13.9761 13.0039 13.7 13.0039C13.4239 13.0039 13.2 13.2278 13.2 13.5039V15.0039C13.2 15.28 13.4239 15.5039 13.7 15.5039H14.9C15.1761 15.5039 15.4 15.28 15.4 15.0039C15.4 14.7278 15.1761 14.5039 14.9 14.5039H14.2V13.5039Z" fill="#818386"/>
</svg>
