<svg width="20" height="16" viewBox="0 0 20 16" fill="none" xmlns="http://www.w3.org/2000/svg">
<path fill-rule="evenodd" clip-rule="evenodd" d="M1.30039 11.0181C0.803334 11.0181 0.400391 11.4281 0.400391 11.9338C0.400391 12.4395 0.803334 12.8494 1.30039 12.8494H8.06705C8.56411 12.8494 8.96705 12.4395 8.96705 11.9338C8.96705 11.4281 8.56411 11.0181 8.06705 11.0181H1.30039ZM18.6995 12.8494L12.8333 12.8494V14.8842C12.8333 15.3899 12.4303 15.7998 11.9333 15.7998C11.4362 15.7998 11.0333 15.3899 11.0333 14.8842V11.9627C11.033 11.9531 11.0328 11.9434 11.0328 11.9338C11.0328 11.9241 11.033 11.9145 11.0333 11.9049V8.98327C11.0333 8.47757 11.4362 8.06762 11.9333 8.06762C12.4303 8.06762 12.8333 8.47757 12.8333 8.98327V11.0181H18.6995C19.1965 11.0181 19.5995 11.4281 19.5995 11.9338C19.5995 12.4395 19.1965 12.8494 18.6995 12.8494ZM9.10039 4.06577C9.10039 3.56007 9.50334 3.15011 10.0004 3.15011L18.7004 3.15011C19.1974 3.15011 19.6004 3.56007 19.6004 4.06577C19.6004 4.57147 19.1974 4.98142 18.7004 4.98142L10.0004 4.98142C9.50334 4.98142 9.10039 4.57147 9.10039 4.06577ZM1.30039 3.15011C0.803334 3.15011 0.400391 3.56007 0.400391 4.06577C0.400391 4.57147 0.803334 4.98142 1.30039 4.98142H5.2332V7.01629C5.2332 7.52199 5.63615 7.93195 6.1332 7.93195C6.63026 7.93195 7.0332 7.52199 7.0332 7.01629V4.09709C7.03355 4.08669 7.03372 4.07625 7.03372 4.06577C7.03372 4.05528 7.03355 4.04484 7.0332 4.03444V1.11541C7.0332 0.609712 6.63026 0.199761 6.1332 0.199761C5.63615 0.199761 5.2332 0.609712 5.2332 1.11541V3.15011H1.30039Z" fill="#333333"/>
</svg>
