<svg width="48" height="48" viewBox="0 0 48 48" fill="none" xmlns="http://www.w3.org/2000/svg">
<g opacity="0.7">
<path fill-rule="evenodd" clip-rule="evenodd" d="M10.0798 10.8C9.63424 10.8 9.20693 10.977 8.89186 11.2921C8.5768 11.6071 8.3998 12.0344 8.3998 12.48V19.38H39.5998V17.7C39.5998 17.2544 39.4228 16.8271 39.1077 16.5121C38.7927 16.197 38.3654 16.02 37.9198 16.02H22.2598C21.658 16.02 21.096 15.7192 20.7621 15.2185L17.8165 10.8H10.0798ZM39.5998 22.98H8.3998V36.84C8.3998 37.2856 8.5768 37.7129 8.89186 38.0279C9.20693 38.343 9.63424 38.52 10.0798 38.52H37.9198C38.3654 38.52 38.7927 38.343 39.1077 38.0279C39.4228 37.7129 39.5998 37.2856 39.5998 36.84V22.98ZM6.34628 8.74647C7.33647 7.75628 8.67946 7.2 10.0798 7.2H18.7798C19.3816 7.2 19.9437 7.50078 20.2775 8.00154L23.2231 12.42H37.9198C39.3201 12.42 40.6631 12.9763 41.6533 13.9665C42.6435 14.9567 43.1998 16.2997 43.1998 17.7V36.84C43.1998 38.2403 42.6435 39.5833 41.6533 40.5735C40.6631 41.5637 39.3201 42.12 37.9198 42.12H10.0798C8.67946 42.12 7.33647 41.5637 6.34628 40.5735C5.35609 39.5833 4.7998 38.2403 4.7998 36.84V12.48C4.7998 11.0797 5.35609 9.73667 6.34628 8.74647Z" fill="white"/>
</g>
</svg>
