<svg width="40" height="40" viewBox="0 0 40 40" fill="none" xmlns="http://www.w3.org/2000/svg">
<path d="M0 18.1333C0 11.15 0 7.65836 1.57184 5.09335C2.45137 3.65809 3.65809 2.45137 5.09335 1.57184C7.65836 0 11.15 0 18.1333 0H21.8667C28.85 0 32.3416 0 34.9067 1.57184C36.3419 2.45137 37.5486 3.65809 38.4282 5.09335C40 7.65836 40 11.15 40 18.1333V21.8667C40 28.85 40 32.3416 38.4282 34.9066C37.5486 36.3419 36.3419 37.5486 34.9067 38.4282C32.3416 40 28.85 40 21.8667 40H18.1333C11.15 40 7.65836 40 5.09335 38.4282C3.65809 37.5486 2.45137 36.3419 1.57184 34.9066C0 32.3416 0 28.85 0 21.8667V18.1333Z" fill="#FFBB5D"/>
<path d="M25.6965 31.6081V27.3652H14.7861V31.6081L20.2413 36.4572L25.6965 31.6081Z" fill="#FFD7A3"/>
<path fill-rule="evenodd" clip-rule="evenodd" d="M36.0003 37.66C35.6532 37.9379 35.2882 38.1946 34.907 38.4282C32.342 40 28.8503 40 21.867 40H18.1337C11.1503 40 7.65868 40 5.09367 38.4282C4.88465 38.3001 4.68047 38.165 4.48145 38.0234V35.9524C4.48145 34.8273 5.25546 33.85 6.3507 33.5923L13.8511 31.8275C14.0642 31.7773 14.2518 31.6716 14.4029 31.5293L20.2409 35.2444L26.3158 31.7007C26.4134 31.7556 26.5175 31.8008 26.6308 31.8274L34.1313 33.5923C35.2264 33.8499 36.0004 34.8272 36.0003 35.9524V37.66Z" fill="#8B63E7"/>
<path d="M14.7861 27.3653V31.8419C21.6582 34.3178 25.6965 28.1212 25.6965 28.1212V27.3652H14.7861V27.3653Z" fill="#F0C290"/>
<path d="M12.3613 13.4248L12.8895 25.0452C12.9388 26.1307 13.4711 27.1375 14.3405 27.7895L16.8467 29.6692C17.4762 30.1412 18.2418 30.3965 19.0288 30.3965H21.4533C22.2403 30.3965 23.0059 30.1413 23.6354 29.6692L26.1416 27.7895C27.011 27.1374 27.5433 26.1308 27.5926 25.0452L28.1208 13.4248C28.1207 13.4248 12.3613 13.4248 12.3613 13.4248Z" fill="#FFE1B2"/>
<path fill-rule="evenodd" clip-rule="evenodd" d="M21.6225 40H18.8574L19.1035 36.457H21.3765L21.6225 40Z" fill="#5B5D6E"/>
<path d="M21.7563 35.2451H18.7256V36.3859C18.7256 36.7602 19.029 37.0636 19.4033 37.0636H21.0785C21.4528 37.0636 21.7562 36.7602 21.7562 36.3859V35.2451H21.7563Z" fill="#515262"/>
<path d="M14.701 30.2582L20.2413 35.2444C20.2413 35.2444 18.6897 36.0277 16.775 37.6064C16.38 37.9321 15.7826 37.8002 15.5707 37.3341L12.9678 31.6077L13.7912 30.3726C13.9961 30.0649 14.4263 30.011 14.701 30.2582Z" fill="white"/>
<path d="M25.7815 30.2582L20.2412 35.2444C20.2412 35.2444 21.7928 36.0277 23.7075 37.6064C24.1025 37.9321 24.7 37.8002 24.9118 37.3341L27.5148 31.6077L26.6913 30.3726C26.4863 30.0649 26.0562 30.011 25.7815 30.2582Z" fill="white"/>
<path d="M23.916 9.40879L24.4842 13.4244C27.0781 13.9432 27.452 18.0139 27.5058 19.1766C27.5155 19.3876 27.5829 19.5914 27.6974 19.7689L28.6871 21.3041C28.6871 21.3041 28.3483 18.7659 29.8993 17.0612C29.8994 17.0612 30.432 6.98422 23.916 9.40879Z" fill="#4E1E30"/>
<path d="M29.2946 21.0453L28.6103 23.7825C28.5292 24.1069 28.2378 24.3344 27.9033 24.3344C27.5357 24.3344 27.2258 24.0608 27.1802 23.6961L26.8302 20.8965C26.7365 20.1472 27.3208 19.4854 28.076 19.4854H28.0765C28.8934 19.4854 29.4927 20.2529 29.2946 21.0453Z" fill="#FFE1B2"/>
<path d="M12.9428 8.32256L13.8393 8.935C9.78579 11.9278 10.5434 17.061 10.5434 17.061C11.7556 18.2732 11.7556 21.3039 11.7556 21.3039L12.9679 20.0917C12.9679 20.0917 12.5001 16.5898 14.7863 15.2426C16.9077 13.9925 18.764 14.6365 20.6582 14.6365C25.7345 14.6365 27.1552 12.7234 26.9089 10.3936C26.7815 9.18804 24.9383 6.67688 20.2415 6.75674C18.346 6.78895 14.7864 7.36287 12.9428 8.32256Z" fill="#66273F"/>
<path d="M12.5891 14.1066C12.5891 14.1066 11.9451 11.5684 13.8393 8.93555C9.78579 11.9283 10.5434 17.0615 10.5434 17.0615C11.7556 18.2738 11.7556 21.3045 11.7556 21.3045L12.9679 20.0922C12.9679 20.0922 12.5001 16.5903 14.7863 15.2432C16.9077 13.993 18.764 14.637 20.6582 14.637C21.4838 14.637 22.2032 14.5818 22.844 14.487C18.9346 14.618 16.6301 11.6568 12.5891 14.1066Z" fill="#4E1E30"/>
<path d="M11.1875 21.0453L11.8718 23.7825C11.9529 24.1069 12.2443 24.3344 12.5788 24.3344C12.9464 24.3344 13.2563 24.0608 13.3019 23.6961L13.6519 20.8965C13.7456 20.1472 13.1614 19.4854 12.4062 19.4854H12.4056C11.5887 19.4854 10.9894 20.2529 11.1875 21.0453Z" fill="#FFE1B2"/>
</svg>
