<svg width="40" height="40" viewBox="0 0 40 40" fill="none" xmlns="http://www.w3.org/2000/svg">
<path d="M0 18.1333C0 11.15 0 7.65836 1.57184 5.09335C2.45137 3.65809 3.65809 2.45137 5.09335 1.57184C7.65836 0 11.15 0 18.1333 0H21.8667C28.85 0 32.3416 0 34.9067 1.57184C36.3419 2.45137 37.5486 3.65809 38.4282 5.09335C40 7.65836 40 11.15 40 18.1333V21.8667C40 28.85 40 32.3416 38.4282 34.9067C37.5486 36.3419 36.3419 37.5486 34.9067 38.4282C32.3416 40 28.85 40 21.8667 40H18.1333C11.15 40 7.65836 40 5.09335 38.4282C3.65809 37.5486 2.45137 36.3419 1.57184 34.9067C0 32.3416 0 28.85 0 21.8667V18.1333Z" fill="#37CFD1"/>
<path d="M27.6757 13.6743V19.4071C27.6757 19.49 27.6738 19.5729 27.6718 19.6557C27.67 19.7236 27.6682 19.7896 27.6643 19.8576C27.6625 19.9179 27.6586 19.9783 27.6529 20.0386C27.6511 20.0819 27.6473 20.1253 27.6436 20.1686C27.6416 20.1952 27.6397 20.2194 27.6359 20.246C27.6322 20.2931 27.6284 20.342 27.6209 20.3892C27.6133 20.4795 27.602 20.5683 27.5888 20.6587C27.5869 20.6814 27.5831 20.704 27.5794 20.7265C27.5737 20.7718 27.5662 20.8171 27.5587 20.8622V20.8679C27.5475 20.9337 27.5361 20.9979 27.5248 21.0639C27.5077 21.1543 27.4909 21.2449 27.472 21.3334C27.4701 21.3373 27.4701 21.3411 27.4683 21.345C27.4665 21.358 27.4645 21.3714 27.4608 21.3846C27.459 21.3884 27.459 21.3921 27.4569 21.396C27.4476 21.4451 27.4362 21.492 27.4248 21.5392C27.4212 21.5599 27.4173 21.5808 27.4098 21.6015C27.4041 21.6354 27.3946 21.6692 27.3873 21.7033C27.3816 21.7221 27.3779 21.7429 27.3702 21.7616C27.3664 21.7786 27.3609 21.7957 27.357 21.8107C27.3174 21.9653 27.2721 22.1162 27.225 22.2669C27.2023 22.3386 27.1797 22.4083 27.1553 22.48C27.1535 22.4875 27.1496 22.495 27.1478 22.5025C27.1252 22.5667 27.1025 22.6307 27.08 22.6948C27.0724 22.7137 27.0649 22.7324 27.0574 22.7532C27.0347 22.8135 27.0121 22.8738 26.9877 22.9341C26.9595 23.0075 26.9292 23.0792 26.8992 23.151C26.8728 23.2152 26.8445 23.279 26.8163 23.3432C26.8126 23.3547 26.8069 23.3639 26.8031 23.3753C26.771 23.4431 26.7409 23.511 26.7088 23.5771C26.6768 23.6468 26.6428 23.7167 26.6071 23.7865C26.5392 23.9241 26.4657 24.0618 26.3922 24.1954L26.2904 24.3764C26 24.876 25.6778 25.3452 25.3271 25.7789C25.28 25.841 25.231 25.9014 25.18 25.9597C25.1104 26.0446 25.0387 26.1274 24.967 26.2085C24.9028 26.2802 24.8388 26.3517 24.7728 26.4215C24.5918 26.6157 24.407 26.8003 24.2185 26.974C24.1807 27.0116 24.1413 27.0457 24.1017 27.0814C24.0375 27.1397 23.9736 27.1964 23.9075 27.251C23.8568 27.2963 23.804 27.3396 23.751 27.383C23.6153 27.4942 23.4796 27.6016 23.3419 27.7015C23.2854 27.745 23.2269 27.7864 23.1684 27.826C23.0742 27.8939 22.9779 27.958 22.8819 28.0204C22.8291 28.0561 22.7744 28.0901 22.7198 28.1222C22.5274 28.2408 22.3333 28.3502 22.1409 28.4445C22.0938 28.4691 22.0467 28.4918 21.9996 28.5143C21.9524 28.5369 21.9035 28.5596 21.8525 28.5822C21.7903 28.6104 21.728 28.6368 21.6659 28.6614C21.6413 28.6726 21.6169 28.6821 21.5923 28.6896C21.5188 28.7199 21.4434 28.7479 21.3699 28.7725C21.2777 28.8066 21.1833 28.8349 21.091 28.8611C21.0269 28.88 20.961 28.8968 20.8969 28.9119C20.893 28.9139 20.8893 28.9157 20.8837 28.9157C20.8195 28.9309 20.7555 28.946 20.6913 28.9573C20.6744 28.9612 20.6574 28.9649 20.6405 28.9669C20.5877 28.9762 20.5349 28.9858 20.4821 28.9914C20.4068 29.0028 20.3312 29.0122 20.2559 29.0158C20.2294 29.0197 20.2051 29.0215 20.1787 29.0215C20.1183 29.0252 20.058 29.0272 19.9995 29.0272H19.9938C19.9355 29.0272 19.877 29.0252 19.8185 29.0215C19.796 29.0215 19.7733 29.0197 19.7507 29.0158C19.6979 29.014 19.6433 29.0083 19.5866 29.0008C19.5754 29.0008 19.5622 28.999 19.5509 28.9969C19.4812 28.9876 19.4113 28.9762 19.3398 28.963C19.2795 28.9535 19.2192 28.9403 19.1568 28.9252C18.8345 28.8517 18.5028 28.7404 18.1673 28.5917C17.8807 28.4654 17.5904 28.3127 17.302 28.1355C17.157 28.047 17.0117 27.9527 16.8684 27.8528C16.7967 27.8018 16.7252 27.7509 16.6535 27.6981C16.429 27.534 16.2066 27.355 15.9881 27.1627C15.9278 27.108 15.8674 27.0534 15.8071 26.9969C15.7468 26.9423 15.6865 26.8856 15.628 26.831C15.4809 26.6896 15.3377 26.5427 15.1982 26.39C15.1435 26.3315 15.0889 26.2714 15.0341 26.209C14.8834 26.0394 14.7363 25.8641 14.5968 25.6811C14.5421 25.6153 14.4912 25.5475 14.4404 25.4795C14.2499 25.2268 14.0691 24.9629 13.8993 24.6894C13.854 24.616 13.8087 24.5407 13.7654 24.467C13.7126 24.3784 13.6619 24.2878 13.6109 24.1974C13.4224 23.858 13.2489 23.5056 13.0982 23.1417C13.0755 23.0889 13.0529 23.0361 13.034 22.9834C13.004 22.9156 12.9776 22.8457 12.953 22.7779C12.9152 22.678 12.8795 22.578 12.8456 22.4781C12.8116 22.3782 12.7795 22.2762 12.7475 22.1747C12.7174 22.0766 12.6892 21.9787 12.6628 21.8787C12.6325 21.7731 12.6043 21.6657 12.5797 21.5564C12.5779 21.545 12.574 21.5337 12.5722 21.5223C12.5364 21.3716 12.5043 21.2188 12.4761 21.0643C12.4383 20.8607 12.4083 20.6534 12.3857 20.444C12.3762 20.3782 12.3705 20.312 12.365 20.2461C12.3575 20.1763 12.3518 20.1084 12.3479 20.0388C12.3386 19.9124 12.3329 19.7841 12.329 19.6559C12.3272 19.573 12.3252 19.4902 12.3252 19.4073V13.6743C12.3252 9.43827 15.758 6.00367 19.9938 6H20.0015C20.5859 6 21.1552 6.06582 21.7018 6.18849C22.2014 6.30144 22.6822 6.4637 23.1382 6.66906C23.7603 6.94795 24.339 7.3064 24.8593 7.73436C25.2968 8.09245 25.6945 8.49583 26.0414 8.94083C27.0519 10.2284 27.6606 11.8459 27.6738 13.6065C27.6757 13.629 27.6757 13.6516 27.6757 13.6743Z" fill="#FFE1B2"/>
<path fill-rule="evenodd" clip-rule="evenodd" d="M29.9524 39.8124C27.9004 40.0003 25.3076 40.0003 21.8675 40.0003H18.1342C14.6944 40.0003 12.1018 40.0003 10.0498 39.8125C10.126 39.0369 10.2908 38.287 10.535 37.5743C10.5971 37.3915 10.665 37.2106 10.7387 37.0314V37.0294C10.8104 36.8503 10.8894 36.675 10.9723 36.5017C11.3021 35.8061 11.7132 35.1555 12.1901 34.56C12.3108 34.4109 12.4333 34.2657 12.5596 34.1263C12.6183 34.0586 12.6805 33.9928 12.7428 33.9268L12.7538 33.9153C12.8196 33.8475 12.8858 33.7796 12.9534 33.7118C13.291 33.3742 13.6527 33.0653 14.0338 32.7805C14.2241 32.6392 14.4164 32.5071 14.6163 32.3792C14.8161 32.2528 15.0197 32.132 15.227 32.019C15.2309 32.0154 15.2345 32.0154 15.2345 32.0154C15.3156 31.9719 15.3948 31.9248 15.474 31.8758C15.7096 31.7345 15.9359 31.5779 16.1508 31.4046C17.0613 30.6807 17.7663 29.7079 18.1679 28.592C18.4073 27.9245 18.5373 27.2063 18.5373 26.4561L19.9944 26.4636L21.4932 26.4713C21.4932 27.212 21.6195 27.9227 21.8533 28.5826C22.2492 29.7024 22.9523 30.6789 23.8629 31.4065C23.9986 31.5178 24.1363 31.6195 24.2813 31.7158C24.2965 31.727 24.3095 31.7363 24.3247 31.7458C24.3926 31.7911 24.4604 31.8362 24.5321 31.8779C24.6093 31.925 24.6885 31.9721 24.7677 32.0156C24.7809 32.0192 24.7923 32.0249 24.8016 32.0324C24.9676 32.1248 25.1315 32.2209 25.2918 32.3209C25.3691 32.368 25.4463 32.4169 25.5217 32.4716C25.6783 32.5715 25.8308 32.681 25.9799 32.7941C25.9799 32.795 25.9803 32.7955 25.9808 32.7957C25.9813 32.7959 25.9817 32.7959 25.9817 32.7959H25.9836C26.1741 32.9373 26.3587 33.0882 26.5397 33.2428C26.7206 33.3975 26.8941 33.5594 27.0619 33.7274C28.6594 35.3178 29.7195 37.442 29.9524 39.8124Z" fill="#F0C290"/>
<path fill-rule="evenodd" clip-rule="evenodd" d="M29.9514 39.8122C27.8994 40 25.3069 40 21.8671 40H18.1338C14.6937 40 12.1009 40 10.0488 39.8121C10.125 39.0363 10.2898 38.286 10.5341 37.5733C10.5962 37.3905 10.6642 37.2096 10.7376 37.0304V37.0284C10.8093 36.8493 10.8885 36.674 10.9714 36.5005C11.3012 35.8051 11.7121 35.1545 12.1892 34.5588C12.3099 34.4099 12.4325 34.2647 12.5587 34.1254C12.6208 34.0537 12.6868 33.984 12.7528 33.9143L12.7529 33.9143C12.8189 33.8465 12.8849 33.7786 12.9527 33.7108C13.2901 33.3732 13.652 33.0643 14.0328 32.7795C14.2234 32.6382 14.4155 32.5061 14.6154 32.378C14.719 32.3122 14.8227 32.248 14.9282 32.1858C15.0263 32.1273 15.1262 32.0707 15.2261 32.016C15.23 32.0122 15.2336 32.0142 15.2336 32.0142V32.0122C15.3147 31.9669 15.3939 31.9218 15.4731 31.8745C15.7087 31.7313 15.935 31.5729 16.146 31.3994C16.1478 31.4014 16.1478 31.4014 16.1498 31.4032L16.1499 31.4033C17.1264 32.4024 18.4856 33.0227 19.9937 33.0265H20.0089C21.517 33.0265 22.8817 32.4044 23.8621 31.4053L23.864 31.4033C23.9978 31.5146 24.1374 31.6183 24.2806 31.7144C24.2956 31.7256 24.3088 31.735 24.3238 31.7445C24.386 31.786 24.4499 31.8258 24.5138 31.8657L24.5312 31.8765C24.6084 31.9236 24.6878 31.9689 24.7668 32.0122C24.7757 32.0148 24.783 32.0191 24.7902 32.0233C24.7936 32.0253 24.7971 32.0274 24.8007 32.0292C24.8893 32.0784 24.9799 32.1292 25.0666 32.1818C25.1421 32.2271 25.2175 32.2724 25.291 32.3195C25.3682 32.3666 25.4456 32.4156 25.521 32.4702C25.6775 32.5701 25.8301 32.6796 25.979 32.7927H25.9828C26.1731 32.9359 26.3598 33.085 26.5389 33.2412C26.7199 33.396 26.8934 33.5581 27.0611 33.7258C28.6587 35.3168 29.7187 37.4412 29.9514 39.8122Z" fill="#FF9054"/>
<path d="M27.6757 19.4072C27.6757 19.4901 27.6738 19.573 27.6718 19.6559C27.67 19.7237 27.6682 19.7897 27.6643 19.8577C27.6625 19.9181 27.6586 19.9784 27.6529 20.0387C27.6511 20.082 27.6473 20.1254 27.6436 20.1687C27.6416 20.1953 27.6397 20.2195 27.6359 20.2461C27.6322 20.2932 27.6284 20.3422 27.6209 20.3893C27.6113 20.4797 27.602 20.5701 27.5888 20.6588C27.5869 20.6815 27.5831 20.7041 27.5794 20.7266C27.5737 20.7719 27.5662 20.8172 27.5587 20.8623C27.5493 20.9302 27.5361 20.998 27.5248 21.0642C27.5097 21.1434 27.4945 21.2206 27.4777 21.2978C27.4756 21.3149 27.472 21.3299 27.4681 21.3451C27.4663 21.3581 27.4624 21.3715 27.4606 21.3847C27.4588 21.3886 27.4588 21.3922 27.4568 21.3961C27.4568 21.4054 27.4549 21.4131 27.4531 21.4206C27.4437 21.4603 27.436 21.4999 27.4248 21.5393C27.4212 21.56 27.4173 21.5809 27.4098 21.6016C27.4021 21.6392 27.3928 21.675 27.3816 21.7109C27.3797 21.728 27.3759 21.745 27.3702 21.7617C27.3664 21.7787 27.3609 21.7958 27.357 21.8108C27.3174 21.9654 27.2721 22.1163 27.225 22.267C27.2023 22.3387 27.1797 22.4084 27.1553 22.4801C27.1535 22.4876 27.1496 22.4951 27.1478 22.5026C27.1252 22.5668 27.1025 22.6308 27.08 22.695C27.0724 22.7139 27.0649 22.7326 27.0574 22.7533C27.0347 22.8136 27.0121 22.8739 26.9877 22.9342C26.9595 23.0076 26.9292 23.0793 26.8992 23.1512C26.8728 23.2153 26.8445 23.2791 26.8163 23.3433C26.8126 23.3549 26.8069 23.364 26.8031 23.3754C26.771 23.4432 26.7409 23.5111 26.7088 23.5773C26.6768 23.6469 26.6428 23.7168 26.6071 23.7867C26.5392 23.9242 26.4657 24.0619 26.3922 24.1955L26.2904 24.3765C26 24.8762 25.6778 25.3454 25.3271 25.779C25.28 25.8412 25.231 25.9015 25.18 25.9598C25.1104 26.0447 25.0387 26.1276 24.967 26.2086C24.9028 26.2803 24.8388 26.3518 24.7728 26.4217C24.5918 26.6158 24.407 26.8005 24.2185 26.9741C24.1807 27.0117 24.1413 27.0458 24.1017 27.0816C24.0375 27.1399 23.9736 27.1965 23.9075 27.2512C23.8568 27.2964 23.804 27.3397 23.751 27.3832C23.6153 27.4943 23.4796 27.6017 23.3419 27.7017C23.2854 27.7451 23.2269 27.7866 23.1684 27.8262C23.0742 27.894 22.9779 27.9582 22.8819 28.0205C22.8291 28.0563 22.7744 28.0902 22.7198 28.1223C22.5274 28.2409 22.3333 28.3504 22.1409 28.4446C22.0938 28.4692 22.0467 28.4919 21.9996 28.5145C21.9524 28.537 21.9035 28.5598 21.8525 28.5823C21.7903 28.6106 21.728 28.637 21.6659 28.6615C21.6413 28.6727 21.6169 28.6822 21.5923 28.6898C21.5188 28.72 21.4434 28.7481 21.3699 28.7726C21.2777 28.8067 21.1833 28.835 21.091 28.8612C21.0269 28.8801 20.961 28.897 20.8969 28.912C20.893 28.914 20.8893 28.9158 20.8837 28.9158C20.8195 28.9311 20.7555 28.9461 20.6913 28.9575C20.6744 28.9613 20.6574 28.965 20.6405 28.967C20.5877 28.9763 20.5349 28.9859 20.4821 28.9916C20.4068 29.0029 20.3312 29.0123 20.2559 29.016C20.2294 29.0198 20.2051 29.0216 20.1787 29.0216C20.1183 29.0253 20.058 29.0273 19.9995 29.0273H19.9938C19.9355 29.0273 19.877 29.0253 19.8185 29.0216C19.796 29.0216 19.7733 29.0198 19.7507 29.016C19.6979 29.0141 19.6433 29.0084 19.5866 29.0009C19.5754 29.0009 19.5622 28.9991 19.5509 28.9971C19.4812 28.9877 19.4113 28.9763 19.3398 28.9631C19.2795 28.9536 19.2192 28.9404 19.1568 28.9254C18.8345 28.8518 18.5028 28.7406 18.1673 28.5918C17.8807 28.4655 17.5904 28.3128 17.302 28.1357C17.157 28.0489 17.0136 27.9547 16.8684 27.8529C16.7967 27.802 16.7252 27.751 16.6535 27.6982C16.429 27.5341 16.2066 27.3551 15.9881 27.1628C15.9278 27.1081 15.8674 27.0535 15.8071 26.997C15.7468 26.9424 15.6865 26.8857 15.628 26.8311C15.4809 26.6897 15.3377 26.5429 15.1982 26.3901C15.1435 26.3316 15.0889 26.2715 15.0341 26.2092C14.8834 26.0395 14.7363 25.8643 14.5968 25.6813C14.5421 25.6154 14.4912 25.5476 14.4404 25.4796C14.2499 25.2269 14.0691 24.9631 13.8993 24.6895C13.854 24.6162 13.8087 24.5408 13.7654 24.4671C13.7126 24.3785 13.6619 24.288 13.6109 24.1976C13.4224 23.8582 13.2489 23.5058 13.0982 23.1418C13.0755 23.089 13.0529 23.0362 13.034 22.9836C13.004 22.9157 12.9776 22.8459 12.953 22.778C12.9152 22.6781 12.8795 22.5782 12.8456 22.4782C12.8116 22.3783 12.7795 22.2764 12.7475 22.1748C12.7174 22.0767 12.6892 21.9788 12.6628 21.8789C12.6325 21.7732 12.6043 21.6658 12.5797 21.5565C12.5779 21.5451 12.574 21.5338 12.5722 21.5224C12.5364 21.3717 12.5043 21.219 12.4761 21.0644C12.4383 20.8609 12.4083 20.6535 12.3857 20.4441C12.3762 20.3783 12.3705 20.3121 12.365 20.2463C12.3575 20.1764 12.3518 20.1086 12.3479 20.0389C12.3386 19.9126 12.3329 19.7842 12.329 19.656C12.3272 19.5732 12.3252 19.4903 12.3252 19.4074L13.5506 21.8167L15.6562 22.7348L18.1462 22.9588H18.148L19.9935 23.1266H20.0048L21.7315 23.283C21.7315 23.283 21.7315 23.2812 21.7333 23.283L25.5847 23.6301L27.6757 19.4072Z" fill="#4E1E30"/>
<path d="M20.0091 20.6173L20.0072 22.4742V22.476L20.0054 23.1265V23.6374L20.0036 25.3339V25.336L20.0017 25.3339H19.9999L19.9942 25.3301L12.5797 21.5561C12.5779 21.5447 12.574 21.5334 12.5722 21.522C12.5364 21.3713 12.5043 21.2185 12.4761 21.064C12.4383 20.8605 12.4083 20.6531 12.3857 20.4437C12.3762 20.3779 12.3705 20.3117 12.365 20.2458C12.3575 20.176 12.3518 20.1081 12.3479 20.0385C12.3386 19.9121 12.3329 19.7838 12.329 19.6556C12.3272 19.5727 12.3252 19.4899 12.3252 19.407V17.1543C12.3252 17.1864 12.327 17.2185 12.327 17.2504C12.3421 17.7951 12.4288 18.3945 12.5966 19.0073C12.7267 19.4785 12.8886 19.914 13.0773 20.3023V20.3042C13.5713 21.3317 14.233 22.029 14.8417 22.1421C14.8795 22.1478 14.9189 22.1516 14.9567 22.1553C15.1923 22.1817 15.4393 22.1967 15.6938 22.1967C16.6553 22.1967 17.5092 21.4239 18.0464 21.1109C18.0503 21.1091 18.0539 21.1071 18.0578 21.1054C18.086 21.0884 18.1143 21.0713 18.1388 21.0544C18.1463 21.0489 18.1539 21.0451 18.1616 21.0414C18.6139 20.7831 19.2663 20.619 19.9938 20.6173H20.0091Z" fill="#4E1E30"/>
<path d="M27.677 17.1533L27.6752 19.406C27.6752 19.9715 27.6224 20.5258 27.5245 21.063C27.4849 21.2779 27.4396 21.491 27.3868 21.702L25.6467 24.2149L20.0025 25.3328H20.0007L19.9988 25.3348V25.3328L19.9932 20.6154H20.0084C20.7359 20.6174 21.3901 20.7814 21.8425 21.0395C21.8502 21.0434 21.8557 21.047 21.8632 21.0527C21.8896 21.0696 21.9178 21.0867 21.9463 21.1035C21.9481 21.1054 21.9519 21.1074 21.9556 21.1092C22.4947 21.422 23.3467 22.1956 24.3082 22.1956C24.5627 22.1956 24.8097 22.1805 25.0453 22.1541C25.0849 22.1503 25.1225 22.1466 25.1621 22.1409C25.7692 22.0278 26.4328 21.3303 26.9247 20.303V20.3012C27.1132 19.9128 27.2753 19.4773 27.4055 19.0061C27.5751 18.3838 27.6638 17.7769 27.675 17.2246C27.677 17.2004 27.677 17.1777 27.677 17.1533Z" fill="#4E1E30"/>
<path d="M20.0004 23.6374C21.0389 23.6374 21.8807 23.3771 21.8807 23.056C21.8807 22.7349 21.0389 22.4746 20.0004 22.4746C18.962 22.4746 18.1201 22.7349 18.1201 23.056C18.1201 23.3771 18.962 23.6374 20.0004 23.6374Z" fill="#F0C290"/>
<path d="M20.0012 6H19.9938C15.758 6.00385 12.3252 9.43846 12.3252 13.6743V17.0583C12.3252 17.0583 12.6437 15.0392 13.5016 14.059C14.4329 12.9939 14.1972 11.3745 16.286 11.3745C17.6339 11.3745 17.7092 11.8721 19.9922 11.8721H19.994H20.0014H20.0032C22.2861 11.8721 22.3615 11.3745 23.7093 11.3745C25.7981 11.3745 25.5623 12.9937 26.4938 14.059C27.3515 15.0392 27.67 17.0583 27.67 17.0583V13.6743C27.6698 9.43846 24.237 6.00367 20.0012 6Z" fill="#4E1E30"/>
<path d="M25.0662 32.1818L24.8588 32.393C23.5656 33.7106 21.8388 34.4365 19.997 34.4365C18.1364 34.4327 16.4133 33.7051 15.1258 32.3893L14.9277 32.1858C15.0258 32.1273 15.1258 32.0707 15.2257 32.016C15.2295 32.0122 15.2332 32.0142 15.2332 32.0142V32.0122C15.3142 31.9669 15.3935 31.9218 15.4727 31.8745C15.7083 31.7313 15.9345 31.5729 16.1456 31.3994C16.1474 31.4014 16.1474 31.4014 16.1494 31.4033C17.126 32.4024 18.4852 33.0227 19.9933 33.0265H20.0085C21.5166 33.0265 22.8813 32.4044 23.8617 31.4053L23.8635 31.4033C23.9974 31.5146 24.1369 31.6183 24.2801 31.7144C24.2952 31.7256 24.3084 31.735 24.3234 31.7445C24.3912 31.7898 24.4611 31.833 24.5308 31.8765C24.608 31.9236 24.6874 31.9689 24.7664 32.0122C24.7796 32.016 24.7891 32.0236 24.8003 32.0292C24.889 32.0784 24.9794 32.1292 25.0662 32.1818Z" fill="#CC784A"/>
</svg>
