<svg width="48" height="48" viewBox="0 0 48 48" fill="none" xmlns="http://www.w3.org/2000/svg">
<g opacity="0.7">
<path fill-rule="evenodd" clip-rule="evenodd" d="M12.4802 4.79999H26.4002C26.8776 4.79999 27.3354 4.98963 27.673 5.3272L38.113 15.7672C38.4506 16.1048 38.6402 16.5626 38.6402 17.04V37.92C38.6402 40.7958 36.236 43.2 33.3602 43.2H12.4802C9.60435 43.2 7.2002 40.7958 7.2002 37.92V10.08C7.2002 7.20415 9.60435 4.79999 12.4802 4.79999ZM12.4802 8.39999C11.5891 8.39999 10.8002 9.18886 10.8002 10.08V37.92C10.8002 38.8111 11.5891 39.6 12.4802 39.6H33.3602C34.2513 39.6 35.0402 38.8111 35.0402 37.92V18.84H26.4002C25.4061 18.84 24.6002 18.0341 24.6002 17.04V8.39999H12.4802ZM28.2002 10.9456L32.4946 15.24H28.2002V10.9456ZM14.1611 18.7805C14.1611 17.7863 14.967 16.9805 15.9611 16.9805H19.4411C20.4352 16.9805 21.2411 17.7863 21.2411 18.7805C21.2411 19.7746 20.4352 20.5805 19.4411 20.5805H15.9611C14.967 20.5805 14.1611 19.7746 14.1611 18.7805ZM15.9611 23.9402C14.967 23.9402 14.1611 24.7461 14.1611 25.7402C14.1611 26.7343 14.967 27.5402 15.9611 27.5402H29.8811C30.8752 27.5402 31.6811 26.7343 31.6811 25.7402C31.6811 24.7461 30.8752 23.9402 29.8811 23.9402H15.9611ZM15.9611 30.9C14.967 30.9 14.1611 31.7059 14.1611 32.7C14.1611 33.6941 14.967 34.5 15.9611 34.5H29.8811C30.8752 34.5 31.6811 33.6941 31.6811 32.7C31.6811 31.7059 30.8752 30.9 29.8811 30.9H15.9611Z" fill="white"/>
</g>
</svg>
